<svg width="512" height="512" viewBox="0 0 512 512" fill="none" xmlns="http://www.w3.org/2000/svg">
<rect width="512" height="512" rx="140" fill="#17A755"/>
<path d="M270.792 393.125H393.125" stroke="white" stroke-width="20" stroke-linecap="round" stroke-linejoin="round"/>
<path d="M395.786 176.167C403.871 168.084 408.413 157.121 408.415 145.688C408.416 134.256 403.876 123.291 395.793 115.207C387.711 107.122 376.747 102.579 365.315 102.578C353.883 102.576 342.918 107.116 334.833 115.199L130.751 319.327C127.2 322.867 124.575 327.226 123.105 332.02L102.904 398.569C102.509 399.891 102.479 401.296 102.818 402.634C103.157 403.972 103.851 405.194 104.828 406.169C105.805 407.144 107.027 407.837 108.366 408.173C109.705 408.51 111.109 408.478 112.431 408.08L178.996 387.895C183.785 386.439 188.143 383.829 191.688 380.295L395.786 176.167Z" stroke="white" stroke-width="20" stroke-linecap="round" stroke-linejoin="round"/>
</svg>
